<svg version="1.2" xmlns="http://www.w3.org/2000/svg" viewBox="0 0 244 221" width="244" height="221"><style>.a{fill:#222}.b{fill:#f7ae18}</style><path fill-rule="evenodd" class="a" d="m179.9 153.5h-44.1l43.9-71.5q0.7-1.1 1.1-2.5 0.4-1.3 0.4-2.7 0-1.4-0.4-2.7-0.4-1.3-1.1-2.5l-43.9-71.4h44.1l43.9 71.4q0.7 1.1 1.1 2.5 0.4 1.3 0.4 2.7 0 1.4-0.4 2.7-0.4 1.4-1.1 2.5zm-66.6 32.7v15.6c0 4.9 4.3 5.7 7.2 5.7q1 0 2.1-0.1 1.1-0.1 2.1-0.3 1-0.2 2.1-0.5 1-0.3 2-0.7c0.4-0.1 0.7 0.7 1 1.7 0.2 1 0.5 1.9-0.1 2q-1.1 0.4-2.3 0.7-1.1 0.3-2.3 0.5-1.1 0.2-2.3 0.3-1.2 0.1-2.4 0.1c-6.1 0-11.6-2.6-11.6-9.4v-15.7c0-6.9 5.4-9.3 12.6-9.3q1.1 0 2.2 0.1 1.1 0.2 2.1 0.4 1.1 0.3 2.2 0.6 1 0.4 2 0.9c0.6 0.3 0.2 1.1-0.2 2.1-0.5 1-1 1.8-1.5 1.6q-0.8-0.5-1.6-0.8-0.8-0.4-1.7-0.7-0.9-0.2-1.8-0.4-0.9-0.1-1.8-0.1c-3.7 0-8 0.9-8 5.7zm31.3 25c-6.2 0-10.7-3-10.7-9.1v-7.4c0-6.2 4.7-9.1 11-9.1 6.2 0 10.9 2.9 10.9 9.1v7.4c0 6.1-5 9.1-11.2 9.1zm6.5-16.1c0-4.4-2.9-6.3-6.1-6.3-3.2 0-6.4 1.9-6.4 6.3v6.6c0 4.4 2.8 6.3 6 6.3 3.2 0 6.5-1.9 6.5-6.3zm27.3 15.8c-0.9 0-2.3 0-2.3-0.5v-2.3q-0.7 0.7-1.4 1.3-0.8 0.5-1.7 0.9-0.9 0.4-1.8 0.7-1 0.2-2 0.2c-6.5 0-9-3.3-9-9.5v-7.2c0-6.2 4.1-8.9 9.4-8.9 4.9 0 6.4 2.3 6.5 2.5v-10.8c0-0.5 1.4-0.5 2.3-0.5 0.9 0 2.2 0 2.2 0.5v33.1c0 0.5-1.3 0.5-2.2 0.5zm-2.3-16.9c0-2.6-2-5.2-5.9-5.2q-1 0-2.1 0.3-1 0.4-1.8 1.2-0.8 0.7-1.2 1.7-0.4 1-0.4 2.1v8.4c0 3.2 1.7 5.5 5.5 5.5q1.2-0.1 2.2-0.6 1.1-0.5 1.9-1.3 0.8-0.8 1.3-1.9 0.4-1 0.5-2.2zm11.1-16.1c0-0.5 1.4-0.6 2.3-0.6 0.9 0 2.2 0.1 2.2 0.6v3.4c0 0.5-1.3 0.7-2.2 0.7-0.9 0-2.3-0.2-2.3-0.7zm2.2 33.1c-0.9 0-2.2 0-2.2-0.5v-23.9c0-0.5 1.4-0.5 2.3-0.5 0.9 0 2.1 0 2.1 0.5v23.9c0 0.5-1.3 0.5-2.2 0.5zm25.8 0c-0.9 0-2.2 0-2.2-0.5v-16.5q0-0.9-0.3-1.7-0.3-0.8-0.9-1.4-0.6-0.6-1.4-0.9-0.8-0.3-1.7-0.3c-1.5 0-3.1 1-4.4 2.7l-2.1 2.7v15.4c0 0.5-1.2 0.5-2.1 0.5-1 0-2.2 0-2.2-0.5v-23.9c0-0.5 1.2-0.5 2.2-0.5 0.9 0 2.1 0 2.1 0.5v4c0.1 0 1.5-1.8 1.9-2.2q0.6-0.7 1.4-1.2 0.7-0.5 1.5-0.9 0.8-0.3 1.7-0.5 0.9-0.1 1.8-0.1c3.7 0 6.9 3 6.9 8.1v16.7c0 0.5-1.3 0.5-2.2 0.5zm24.6 7.5q-0.8 0.5-1.6 0.9-0.8 0.4-1.7 0.6-0.9 0.3-1.8 0.4-0.9 0.1-1.8 0-1 0-2-0.1-1.1-0.2-2.1-0.5-0.9-0.3-1.9-0.8-0.9-0.5-1.7-1.1c-0.4-0.4 0.1-1.1 0.6-1.9 0.5-0.7 1-1.2 1.3-1q0.7 0.6 1.4 0.9 0.7 0.4 1.5 0.7 0.7 0.3 1.5 0.4 0.8 0.2 1.6 0.2c1.8 0 5.8-1.2 5.8-6.2v-3.1q-0.6 0.8-1.3 1.4-0.7 0.7-1.6 1.2-0.9 0.4-1.9 0.6-0.9 0.3-1.9 0.3c-6 0-9.2-3-9.2-9.2v-7.5c0-6.1 4.1-9 9.4-9 2.8 0 5.3 0.9 6.5 2.9v-1.9c0-0.5 1.2-0.6 2.1-0.6 0.9 0 2.2 0.1 2.2 0.6v22.9c0 2 0 6.5-3.4 8.9zm-0.9-24.3c0-0.6-0.9-5.2-5.6-5.2-3.2 0-5.7 1.8-5.7 5.5v8.3q-0.1 1.1 0.3 2.1 0.4 1 1.2 1.8 0.8 0.7 1.8 1.1 1 0.4 2 0.3c3.2 0 6-3.1 6-6.5 0 0 0-7.4 0-7.4z"/><path fill-rule="evenodd" class="b" d="m47.3 28.9l17.7-28.7h44.1l-39.7 64.6zm27 44.1l17.7-28.8h44l-39.7 64.7zm-34.5-31.9l69 112.3h-43.8l-43.9-71.4q-0.7-1.2-1.1-2.5-0.4-1.4-0.4-2.7 0-1.4 0.4-2.8 0.4-1.3 1.1-2.5zm-27.6 149h-4v20.2c0 0.4-1.2 0.4-2.1 0.4-1 0-2.2 0-2.2-0.4v-20.2h-3.2c-0.4 0-0.5-0.8-0.5-1.7 0-0.9 0.1-1.7 0.5-1.7h3.2v-4.4c0-4.1 2.6-5.1 4.7-5.1h3.4c0.5 0 0.6 1 0.6 1.9 0 0.9-0.1 1.8-0.5 1.8h-1.8c-1.3 0-2.1 0.3-2.1 1.7v4.1h4c0.4 0 0.5 0.8 0.5 1.7 0 0.9-0.1 1.7-0.5 1.7zm24.8 9.9h-15.8v2.3q0 1.1 0.5 2.2 0.4 1 1.2 1.8 0.8 0.7 1.8 1.2 1 0.4 2.2 0.4c3.1 0 4.9-0.8 7.6-2.3 0.4-0.2 0.9 0.4 1.2 1.2 0.4 0.8 0.7 1.6 0.3 1.8q-1 0.7-2.1 1.2-1.1 0.5-2.3 0.8-1.1 0.3-2.3 0.4-1.2 0.2-2.4 0.1c-5.3 0-10.2-3.6-10.2-9.2v-7.4c0-5.6 4.8-9 10.3-9 5.4 0 10 2.2 10 8.9 0 0 0 5.6 0 5.6zm-4.4-5.7q0-1.1-0.4-2.1-0.4-1.1-1.2-1.9-0.8-0.7-1.8-1.2-1-0.4-2.2-0.4c-3.5 0-5.9 2.3-5.9 5.5v2.5h11.5c0 0 0-2.4 0-2.4zm20.9-3.9q-0.4 0-0.9 0.1-0.5 0.1-0.9 0.3-0.5 0.1-0.9 0.4-0.4 0.3-0.7 0.7c-1 1.2-3.2 4-3.2 4v14.4c0 0.4-1.3 0.4-2.2 0.4-0.9 0-2.2 0-2.2-0.4v-23.9c0-0.4 1.3-0.5 2.2-0.5 0.9 0 2.2 0 2.2 0.4v5.6l2.3-3.8q0.4-0.6 0.9-1 0.5-0.5 1-0.8 0.6-0.3 1.3-0.4 0.6-0.2 1.3-0.1h1.4c0.5 0 0.6 1.3 0.6 2.3 0 0.9-0.1 2.3-0.6 2.3 0 0-1.6 0-1.6 0zm35.6 20.3c-0.9 0-2.2 0-2.2-0.4v-17c0-2.3-1.1-3.8-3.9-3.8-1 0-2.7 0.6-4.2 2.7 0 0-0.6 0.9-1.5 2.1v16c0 0.4-1.2 0.4-2.1 0.4-1 0-2.2 0-2.2-0.4v-17c0-1.4 0-3.8-3.1-3.8-1.7 0-3.3 1.6-4.3 2.8l-2.1 2.5v15.5c0 0.4-1.2 0.4-2.2 0.4-0.9 0-2.1 0-2.1-0.4v-24c0-0.4 1.2-0.4 2.1-0.4 1 0 2.2 0 2.2 0.4v4c0 0 1.1-1.2 1.6-1.7 1.2-1.3 2.8-3.1 6.2-3.1 4.5 0 5.5 4.6 5.5 4.6q0.2-0.3 0.4-0.5 0.2-0.3 0.4-0.5 0.2-0.3 0.4-0.5 0.2-0.2 0.4-0.5 0.6-0.6 1.2-1.1 0.7-0.4 1.5-0.8 0.7-0.3 1.5-0.5 0.9-0.2 1.7-0.2c3.3 0 6.9 1.8 6.9 7.9v16.9c0 0.4-1.2 0.4-2.1 0.4zm8.6-33.1c0-0.4 1.4-0.5 2.3-0.5 0.9 0 2.2 0.1 2.2 0.5v3.5c0 0.5-1.3 0.7-2.2 0.7-0.9 0-2.3-0.2-2.3-0.7zm2.2 33.1c-0.9 0-2.2 0-2.2-0.5v-23.9c0-0.5 1.4-0.5 2.3-0.5 0.9 0 2.1 0 2.1 0.5v23.9c0 0.5-1.3 0.5-2.2 0.5z"/></svg>