# Blender 4.3.0
# www.blender.org
mtllib cutout_cube.mtl
o Cube
v 0.608948 0.608948 -0.608948
v 0.608948 -0.608948 -0.608948
v 0.608948 0.608948 0.608948
v 0.608948 -0.608948 0.608948
v 0.005342 -0.014508 0.044194
v -0.608948 -0.608948 -0.608948
v -0.608948 0.608948 0.608948
v -0.608948 -0.608948 0.608948
v -0.608948 0.608948 0.044194
v 0.005342 0.608948 -0.608948
v 0.005342 0.608948 0.044194
v -0.608948 -0.014508 0.044194
v -0.608948 -0.014508 -0.608948
v 0.005342 -0.014508 -0.608948
vn -0.0000 1.0000 -0.0000
vn -0.0000 -0.0000 1.0000
vn -1.0000 -0.0000 -0.0000
vn -0.0000 -1.0000 -0.0000
vn 1.0000 -0.0000 -0.0000
vn -0.0000 -0.0000 -1.0000
vt 0.875000 0.634072
vt 0.875000 0.750000
vt 0.625000 0.750000
vt 0.625000 0.500000
vt 0.748903 0.500000
vt 0.748903 0.634072
vt 0.375000 0.750000
vt 0.625000 1.000000
vt 0.375000 1.000000
vt 0.375000 0.250000
vt 0.375000 0.000000
vt 0.625000 0.000000
vt 0.625000 0.115928
vt 0.497022 0.115928
vt 0.497022 0.250000
vt 0.125000 0.500000
vt 0.375000 0.500000
vt 0.125000 0.750000
vt 0.497022 0.376097
vt 0.625000 0.376097
vt 0.502978 0.876097
vt 0.502978 0.750000
vt 0.375000 0.876097
vt 0.248903 0.615928
vt 0.248903 0.750000
vt 0.375000 0.615928
vt 0.502978 0.615928
s 0
usemtl Material
f 9/1/1 7/2/1 3/3/1 1/4/1 10/5/1 11/6/1
f 4/7/2 3/3/2 7/8/2 8/9/2
f 6/10/3 8/11/3 7/12/3 9/13/3 12/14/3 13/15/3
f 6/16/4 2/17/4 4/7/4 8/18/4
f 2/17/5 1/4/5 3/3/5 4/7/5
f 1/4/6 2/17/6 6/10/6 13/15/6 14/19/6 10/20/6
f 9/21/6 11/22/6 5/7/6 12/23/6
f 13/24/1 12/25/1 5/7/1 14/26/1
f 14/26/3 5/7/3 11/22/3 10/27/3
