# Blender 4.3.0
# www.blender.org
mtllib icosphere.mtl
o Icosphere
v 0.317554 -0.857276 -0.200622
v 0.075962 0.008187 0.864274
v 0.004613 0.360387 -0.830128
v 0.503362 0.824323 0.011204
v -0.885933 -0.186080 0.166935
vn -0.4946 -0.4961 -0.7136
vn 0.9331 -0.1446 0.3292
vn 0.8677 -0.0334 -0.4960
vn -0.4862 0.7402 0.4645
vn -0.5924 0.8006 -0.0903
vn -0.2586 -0.7775 0.5732
vt 0.662550 0.058261
vt 0.835603 0.206465
vt 0.587013 0.280076
vt 0.368438 0.112678
vt 0.408231 0.359598
vt 0.151765 0.234117
vt 0.014940 0.289045
vt 0.089534 0.419556
vt 0.818182 0.393651
vt 0.932126 0.039899
vt 1.000000 0.157461
vt 0.862985 0.196979
s 0
f 1/1/1 5/2/1 3/3/1
f 1/4/2 4/5/2 2/6/2
f 1/4/3 3/3/3 4/5/3
f 5/7/4 2/6/4 4/8/4
f 3/3/5 5/2/5 4/9/5
f 1/10/6 2/11/6 5/12/6
